<?xml version="1.0" encoding="UTF-8"?>
<svg width="185px" height="45px" viewBox="0 0 185 45" version="1.1" xmlns="http://www.w3.org/2000/svg" xmlns:xlink="http://www.w3.org/1999/xlink">
    <title>Noorts</title>
    <g id="Page-1" stroke="none" stroke-width="1" fill="none" fill-rule="evenodd">
        <g id="Inspiration" transform="translate(-6121.000000, -1407.000000)" fill="#FFFFFF" fill-rule="nonzero" stroke="#000000" stroke-width="1.5">
            <path d="M6129.542,1450 L6129.542,1424.248 C6129.542,1423.16533 6129.484,1421.986 6129.368,1420.71 L6129.368,1420.71 L6151.263,1448.666 C6151.64967,1449.14933 6152.05083,1449.4925 6152.4665,1449.6955 C6152.88217,1449.8985 6153.39933,1450 6154.018,1450 L6154.018,1450 L6158.02,1450 L6158.02,1408.066 L6151.147,1408.066 L6151.147,1433.557 C6151.147,1434.11767 6151.16633,1434.72667 6151.205,1435.384 C6151.24367,1436.04133 6151.292,1436.70833 6151.35,1437.385 L6151.35,1437.385 L6129.368,1409.313 C6129.15533,1409.04233 6128.962,1408.82483 6128.788,1408.6605 C6128.614,1408.49617 6128.43517,1408.3705 6128.2515,1408.2835 C6128.06783,1408.1965 6127.85517,1408.1385 6127.6135,1408.1095 C6127.37183,1408.0805 6127.08667,1408.066 6126.758,1408.066 L6126.758,1408.066 L6122.669,1408.066 L6122.669,1450 L6129.542,1450 Z M6180.294,1450.435 C6182.498,1450.435 6184.50383,1450.07733 6186.3115,1449.362 C6188.11917,1448.64667 6189.66583,1447.622 6190.9515,1446.288 C6192.23717,1444.954 6193.228,1443.33967 6193.924,1441.445 C6194.62,1439.55033 6194.968,1437.42367 6194.968,1435.065 C6194.968,1432.72567 6194.62,1430.60867 6193.924,1428.714 C6193.228,1426.81933 6192.23717,1425.21467 6190.9515,1423.9 C6189.66583,1422.58533 6188.11917,1421.57033 6186.3115,1420.855 C6184.50383,1420.13967 6182.498,1419.782 6180.294,1419.782 C6178.07067,1419.782 6176.05033,1420.13967 6174.233,1420.855 C6172.41567,1421.57033 6170.86417,1422.58533 6169.5785,1423.9 C6168.29283,1425.21467 6167.29717,1426.81933 6166.5915,1428.714 C6165.88583,1430.60867 6165.533,1432.72567 6165.533,1435.065 C6165.533,1437.42367 6165.88583,1439.55033 6166.5915,1441.445 C6167.29717,1443.33967 6168.29283,1444.954 6169.5785,1446.288 C6170.86417,1447.622 6172.41567,1448.64667 6174.233,1449.362 C6176.05033,1450.07733 6178.07067,1450.435 6180.294,1450.435 Z M6180.294,1444.925 C6177.78067,1444.925 6175.91983,1444.08883 6174.7115,1442.4165 C6173.50317,1440.74417 6172.899,1438.313 6172.899,1435.123 C6172.899,1431.933 6173.50317,1429.49217 6174.7115,1427.8005 C6175.91983,1426.10883 6177.78067,1425.263 6180.294,1425.263 C6182.76867,1425.263 6184.6005,1426.104 6185.7895,1427.786 C6186.9785,1429.468 6187.573,1431.91367 6187.573,1435.123 C6187.573,1438.33233 6186.9785,1440.76833 6185.7895,1442.431 C6184.6005,1444.09367 6182.76867,1444.925 6180.294,1444.925 Z M6215.415,1450.435 C6217.619,1450.435 6219.62483,1450.07733 6221.4325,1449.362 C6223.24017,1448.64667 6224.78683,1447.622 6226.0725,1446.288 C6227.35817,1444.954 6228.349,1443.33967 6229.045,1441.445 C6229.741,1439.55033 6230.089,1437.42367 6230.089,1435.065 C6230.089,1432.72567 6229.741,1430.60867 6229.045,1428.714 C6228.349,1426.81933 6227.35817,1425.21467 6226.0725,1423.9 C6224.78683,1422.58533 6223.24017,1421.57033 6221.4325,1420.855 C6219.62483,1420.13967 6217.619,1419.782 6215.415,1419.782 C6213.19167,1419.782 6211.17133,1420.13967 6209.354,1420.855 C6207.53667,1421.57033 6205.98517,1422.58533 6204.6995,1423.9 C6203.41383,1425.21467 6202.41817,1426.81933 6201.7125,1428.714 C6201.00683,1430.60867 6200.654,1432.72567 6200.654,1435.065 C6200.654,1437.42367 6201.00683,1439.55033 6201.7125,1441.445 C6202.41817,1443.33967 6203.41383,1444.954 6204.6995,1446.288 C6205.98517,1447.622 6207.53667,1448.64667 6209.354,1449.362 C6211.17133,1450.07733 6213.19167,1450.435 6215.415,1450.435 Z M6215.415,1444.925 C6212.90167,1444.925 6211.04083,1444.08883 6209.8325,1442.4165 C6208.62417,1440.74417 6208.02,1438.313 6208.02,1435.123 C6208.02,1431.933 6208.62417,1429.49217 6209.8325,1427.8005 C6211.04083,1426.10883 6212.90167,1425.263 6215.415,1425.263 C6217.88967,1425.263 6219.7215,1426.104 6220.9105,1427.786 C6222.0995,1429.468 6222.694,1431.91367 6222.694,1435.123 C6222.694,1438.33233 6222.0995,1440.76833 6220.9105,1442.431 C6219.7215,1444.09367 6217.88967,1444.925 6215.415,1444.925 Z M6244.533,1450 L6244.533,1431.672 C6244.86167,1430.87933 6245.2145,1430.17367 6245.5915,1429.555 C6245.9685,1428.93633 6246.4035,1428.4095 6246.8965,1427.9745 C6247.3895,1427.5395 6247.94533,1427.206 6248.564,1426.974 C6249.18267,1426.742 6249.88833,1426.626 6250.681,1426.626 C6251.22233,1426.626 6251.77817,1426.67433 6252.3485,1426.771 C6252.91883,1426.86767 6253.349,1426.916 6253.639,1426.916 C6253.94833,1426.916 6254.19483,1426.8435 6254.3785,1426.6985 C6254.56217,1426.5535 6254.70233,1426.307 6254.799,1425.959 L6254.799,1425.959 L6255.263,1420.594 C6254.43167,1419.99467 6253.32967,1419.695 6251.957,1419.695 C6250.217,1419.695 6248.709,1420.2025 6247.433,1421.2175 C6246.157,1422.2325 6245.055,1423.62933 6244.127,1425.408 L6244.127,1425.408 L6243.692,1422.044 C6243.59533,1421.36733 6243.402,1420.8985 6243.112,1420.6375 C6242.822,1420.3765 6242.30967,1420.246 6241.575,1420.246 L6241.575,1420.246 L6237.37,1420.246 L6237.37,1450 L6244.533,1450 Z M6270.722,1450.464 C6272.172,1450.464 6273.57367,1450.24167 6274.927,1449.797 C6276.28033,1449.35233 6277.479,1448.695 6278.523,1447.825 L6278.523,1447.825 L6276.377,1444.345 C6276.22233,1444.13233 6276.07733,1443.97283 6275.942,1443.8665 C6275.80667,1443.76017 6275.63267,1443.707 6275.42,1443.707 C6275.246,1443.707 6275.072,1443.76017 6274.898,1443.8665 C6274.724,1443.97283 6274.52583,1444.084 6274.3035,1444.2 C6274.08117,1444.316 6273.82017,1444.42717 6273.5205,1444.5335 C6273.22083,1444.63983 6272.84867,1444.693 6272.404,1444.693 C6271.61133,1444.693 6270.98783,1444.432 6270.5335,1443.91 C6270.07917,1443.388 6269.852,1442.663 6269.852,1441.735 L6269.852,1441.735 L6269.852,1425.611 L6277.798,1425.611 L6277.798,1420.507 L6269.852,1420.507 L6269.852,1411.14 L6266.14,1411.14 C6265.71467,1411.14 6265.36667,1411.24633 6265.096,1411.459 C6264.82533,1411.67167 6264.64167,1411.97133 6264.545,1412.358 L6264.545,1412.358 L6263.037,1420.478 L6258.252,1421.261 L6258.252,1424.103 C6258.252,1424.60567 6258.38733,1424.98267 6258.658,1425.234 C6258.92867,1425.48533 6259.25733,1425.611 6259.644,1425.611 L6259.644,1425.611 L6262.689,1425.611 L6262.689,1442.228 C6262.689,1444.79933 6263.38017,1446.81483 6264.7625,1448.2745 C6266.14483,1449.73417 6268.13133,1450.464 6270.722,1450.464 Z M6292.387,1450.464 C6294.32033,1450.464 6296.0265,1450.2175 6297.5055,1449.7245 C6298.9845,1449.2315 6300.22667,1448.54517 6301.232,1447.6655 C6302.23733,1446.78583 6302.99617,1445.74183 6303.5085,1444.5335 C6304.02083,1443.32517 6304.277,1442.00567 6304.277,1440.575 C6304.277,1439.37633 6304.06917,1438.35167 6303.6535,1437.501 C6303.23783,1436.65033 6302.68683,1435.9205 6302.0005,1435.3115 C6301.31417,1434.7025 6300.536,1434.19983 6299.666,1433.8035 C6298.796,1433.40717 6297.9115,1433.05433 6297.0125,1432.745 C6296.1135,1432.43567 6295.229,1432.1505 6294.359,1431.8895 C6293.489,1431.6285 6292.71083,1431.33367 6292.0245,1431.005 C6291.33817,1430.67633 6290.78717,1430.2945 6290.3715,1429.8595 C6289.95583,1429.4245 6289.748,1428.888 6289.748,1428.25 C6289.748,1427.28333 6290.14917,1426.50033 6290.9515,1425.901 C6291.75383,1425.30167 6292.86067,1425.002 6294.272,1425.002 C6295.18067,1425.002 6295.9685,1425.09867 6296.6355,1425.292 C6297.3025,1425.48533 6297.897,1425.70283 6298.419,1425.9445 C6298.941,1426.18617 6299.40017,1426.40367 6299.7965,1426.597 C6300.19283,1426.79033 6300.565,1426.887 6300.913,1426.887 C6301.24167,1426.887 6301.51233,1426.82417 6301.725,1426.6985 C6301.93767,1426.57283 6302.14067,1426.35533 6302.334,1426.046 L6302.334,1426.046 L6303.958,1423.465 C6302.83667,1422.363 6301.435,1421.47367 6299.753,1420.797 C6298.071,1420.12033 6296.20533,1419.782 6294.156,1419.782 C6292.31933,1419.782 6290.70017,1420.0285 6289.2985,1420.5215 C6287.89683,1421.0145 6286.72717,1421.67183 6285.7895,1422.4935 C6284.85183,1423.31517 6284.14133,1424.277 6283.658,1425.379 C6283.17467,1426.481 6282.933,1427.641 6282.933,1428.859 C6282.933,1430.17367 6283.14083,1431.295 6283.5565,1432.223 C6283.97217,1433.151 6284.52317,1433.934 6285.2095,1434.572 C6285.89583,1435.21 6286.67883,1435.73683 6287.5585,1436.1525 C6288.43817,1436.56817 6289.33717,1436.93067 6290.2555,1437.24 C6291.17383,1437.54933 6292.07283,1437.8345 6292.9525,1438.0955 C6293.83217,1438.3565 6294.61517,1438.65133 6295.3015,1438.98 C6295.98783,1439.30867 6296.53883,1439.69533 6296.9545,1440.14 C6297.37017,1440.58467 6297.578,1441.155 6297.578,1441.851 C6297.578,1442.315 6297.48617,1442.7645 6297.3025,1443.1995 C6297.11883,1443.6345 6296.82883,1444.01633 6296.4325,1444.345 C6296.03617,1444.67367 6295.5335,1444.9395 6294.9245,1445.1425 C6294.3155,1445.3455 6293.58567,1445.447 6292.735,1445.447 C6291.65233,1445.447 6290.75817,1445.32133 6290.0525,1445.07 C6289.34683,1444.81867 6288.733,1444.548 6288.211,1444.258 C6287.689,1443.968 6287.22983,1443.69733 6286.8335,1443.446 C6286.43717,1443.19467 6286.01667,1443.069 6285.572,1443.069 C6285.12733,1443.069 6284.76,1443.156 6284.47,1443.33 C6284.18,1443.504 6283.92867,1443.75533 6283.716,1444.084 L6283.716,1444.084 L6282.063,1446.81 C6282.643,1447.332 6283.31483,1447.81533 6284.0785,1448.26 C6284.84217,1448.70467 6285.6735,1449.09133 6286.5725,1449.42 C6287.4715,1449.74867 6288.40917,1450.00483 6289.3855,1450.1885 C6290.36183,1450.37217 6291.36233,1450.464 6292.387,1450.464 Z" id="Noorts"></path>
        </g>
    </g>
</svg>