<?xml version="1.0" encoding="UTF-8"?>
<svg width="66px" height="66px" viewBox="0 0 66 66" version="1.1" xmlns="http://www.w3.org/2000/svg" xmlns:xlink="http://www.w3.org/1999/xlink">
    <title>Slate Logo</title>
    <defs>
        <linearGradient x1="0%" y1="100%" x2="100%" y2="1.74006866%" id="linearGradient-1">
            <stop stop-color="#000000" offset="0%"></stop>
            <stop stop-color="#5D5D5D" offset="100%"></stop>
        </linearGradient>
        <path d="M32.3678667,48.7402667 C34.0692,48.7402667 35.5791333,48.4815222 36.8976667,47.9640333 C38.2162,47.4465444 39.3327,46.7376556 40.2471667,45.8373667 C41.1616333,44.9370778 41.8563444,43.8808333 42.3313,42.6686333 C42.8062556,41.4564333 43.0437333,40.1556222 43.0437333,38.7662 C43.0437333,37.4902 42.8417,36.4056 42.4376333,35.5124 C42.0335667,34.6192 41.4983556,33.8642333 40.832,33.2475 C40.1656444,32.6307667 39.4071333,32.1203667 38.5564667,31.7163 C37.7058,31.3122333 36.8338667,30.9577889 35.9406667,30.6529667 C35.0474667,30.3481444 34.1755333,30.0610444 33.3248667,29.7916667 C32.4742,29.5222889 31.7156889,29.2174667 31.0493333,28.8772 C30.3829778,28.5369333 29.8477667,28.1257778 29.4437,27.6437333 C29.0396333,27.1616889 28.8376,26.5591333 28.8376,25.8360667 C28.8376,25.2689556 28.9368444,24.7479222 29.1353333,24.2729667 C29.3338222,23.7980111 29.6351,23.3904 30.0391667,23.0501333 C30.4432333,22.7098667 30.943,22.4440333 31.5384667,22.2526333 C32.1339333,22.0612333 32.8286444,21.9655333 33.6226,21.9655333 C34.5016222,21.9655333 35.2636778,22.0754111 35.9087667,22.2951667 C36.5538556,22.5149222 37.1174222,22.7594889 37.5994667,23.0288667 C38.0815111,23.2982444 38.4962111,23.5428111 38.8435667,23.7625667 C39.1909222,23.9823222 39.5134667,24.0922 39.8112,24.0922 C40.0947556,24.0922 40.3322333,24.0248556 40.5236333,23.8901667 C40.7150333,23.7554778 40.8958,23.5392667 41.0659333,23.2415333 L41.0659333,23.2415333 L42.4908,20.5406667 C41.4132889,19.5198667 40.1089333,18.7259111 38.5777333,18.1588 C37.0465333,17.5916889 35.3735556,17.3081333 33.5588,17.3081333 C31.9425333,17.3081333 30.5105778,17.5562444 29.2629333,18.0524667 C28.0152889,18.5486889 26.9661333,19.2079556 26.1154667,20.0302667 C25.2648,20.8525778 24.6161667,21.7954 24.1695667,22.8587333 C23.7229667,23.9220667 23.4996667,25.0137556 23.4996667,26.1338 C23.4996667,27.5374 23.7017,28.7177 24.1057667,29.6747 C24.5098333,30.6317 25.0450444,31.4292 25.7114,32.0672 C26.3777556,32.7052 27.1362667,33.2226889 27.9869333,33.6196667 C28.8376,34.0166444 29.7024444,34.3569111 30.5814667,34.6404667 C31.4604889,34.9240222 32.3253333,35.1863111 33.176,35.4273333 C34.0266667,35.6683556 34.7851778,35.9625444 35.4515333,36.3099 C36.1178889,36.6572556 36.6531,37.0861333 37.0571667,37.5965333 C37.4612333,38.1069333 37.6632667,38.7662 37.6632667,39.5743333 C37.6632667,41.0204667 37.2166667,42.1298778 36.3234667,42.9025667 C35.4302667,43.6752556 34.1684444,44.0616 32.538,44.0616 C31.4746667,44.0616 30.5637444,43.9162778 29.8052333,43.6256333 C29.0467222,43.3349889 28.3839111,43.0124444 27.8168,42.658 C27.2496889,42.3035556 26.7605556,41.9810111 26.3494,41.6903667 C25.9382444,41.3997222 25.5554444,41.2544 25.201,41.2544 C24.9458,41.2544 24.7047778,41.3217444 24.4779333,41.4564333 C24.2510889,41.5911222 24.0667778,41.7577111 23.925,41.9562 L23.925,41.9562 L22.2449333,44.6996 C22.8404,45.3092444 23.5209333,45.8621778 24.2865333,46.3584 C25.0521333,46.8546222 25.8709,47.2799556 26.7428333,47.6344 C27.6147667,47.9888444 28.5256889,48.2617667 29.4756,48.4531667 C30.4255111,48.6445667 31.3896,48.7402667 32.3678667,48.7402667 Z" id="path-2"></path>
    </defs>
    <g id="Page-1" stroke="none" stroke-width="1" fill="none" fill-rule="evenodd">
        <g id="Inspiration" transform="translate(-6573.000000, -1644.000000)">
            <g id="Group-Copy" transform="translate(6573.000000, 1644.000000)">
                <rect id="Rectangle-Copy-3" stroke="#000000" fill="url(#linearGradient-1)" x="0.5" y="0.5" width="65" height="65" rx="3"></rect>
                <g id="S" fill-rule="nonzero" fill="#FFFFFF">
                    <use xlink:href="#path-2"></use>
                    <use stroke="#000000" stroke-width="1" xlink:href="#path-2"></use>
                </g>
            </g>
        </g>
    </g>
</svg>