<?xml version="1.0" encoding="UTF-8"?>
<svg width="36px" height="36px" viewBox="0 0 36 36" version="1.1" xmlns="http://www.w3.org/2000/svg" xmlns:xlink="http://www.w3.org/1999/xlink">
    <title>Toggler Logo</title>
    <g id="Page-1" stroke="none" stroke-width="1" fill="none" fill-rule="evenodd">
        <g id="Rectangle-Group-80x80-Copy-4" transform="translate(-2.000000, -2.000000)">
            <rect id="BackgroundSquare" x="0" y="0" width="40" height="40"></rect>
            <rect id="Rectangle" fill="#373A3C" x="2" y="2" width="36" height="36" rx="3"></rect>
            <path d="M18.9285714,26 L18.9285714,16.8888889 L18.9285714,16.8888889 L16,16.8888889 C15.4477153,16.8888889 15,16.4411736 15,15.8888889 L15,15 C15,14.4477153 15.4477153,14 16,14 L25,14 C25.5522847,14 26,14.4477153 26,15 L26,15.8888889 C26,16.4411736 25.5522847,16.8888889 25,16.8888889 L22.0714286,16.8888889 L22.0714286,16.8888889 L22.0714286,26 C22.0714286,26.5522847 21.6237133,27 21.0714286,27 L19.9285714,27 C19.3762867,27 18.9285714,26.5522847 18.9285714,26 Z" id="Path-3" fill="#D8D8D8"></path>
            <path d="M24,9.35294118 L27.1176471,9.35294118 L27.1176471,9.35294118 L27.6470588,9.35294118 C29.3039131,9.35294118 30.6470588,10.6960869 30.6470588,12.3529412 L30.6470588,12.8823529 L30.6470588,12.8823529 L30.6470588,16 C30.6470588,16.5522847 31.0947741,17 31.6470588,17 L32,17 C32.5522847,17 33,16.5522847 33,16 L33,12.8823529 L33,12.8823529 L33,10 C33,8.34314575 31.6568542,7 30,7 L27.1176471,7 L27.1176471,7 L24,7 C23.4477153,7 23,7.44771525 23,8 L23,8.35294118 C23,8.90522593 23.4477153,9.35294118 24,9.35294118 Z" id="Path-4" fill="#DB5860"></path>
            <path d="M8,9.35294118 L11.1176471,9.35294118 L11.1176471,9.35294118 L11.6470588,9.35294118 C13.3039131,9.35294118 14.6470588,10.6960869 14.6470588,12.3529412 L14.6470588,12.8823529 L14.6470588,12.8823529 L14.6470588,16 C14.6470588,16.5522847 15.0947741,17 15.6470588,17 L16,17 C16.5522847,17 17,16.5522847 17,16 L17,12.8823529 L17,12.8823529 L17,10 C17,8.34314575 15.6568542,7 14,7 L11.1176471,7 L11.1176471,7 L8,7 C7.44771525,7 7,7.44771525 7,8 L7,8.35294118 C7,8.90522593 7.44771525,9.35294118 8,9.35294118 Z" id="Path-4-Copy" fill="#389FD6" transform="translate(12.000000, 12.000000) rotate(-90.000000) translate(-12.000000, -12.000000) "></path>
            <path d="M24,25.3529412 L27.1176471,25.3529412 L27.1176471,25.3529412 L27.6470588,25.3529412 C29.3039131,25.3529412 30.6470588,26.6960869 30.6470588,28.3529412 L30.6470588,28.8823529 L30.6470588,28.8823529 L30.6470588,32 C30.6470588,32.5522847 31.0947741,33 31.6470588,33 L32,33 C32.5522847,33 33,32.5522847 33,32 L33,28.8823529 L33,28.8823529 L33,26 C33,24.3431458 31.6568542,23 30,23 L27.1176471,23 L27.1176471,23 L24,23 C23.4477153,23 23,23.4477153 23,24 L23,24.3529412 C23,24.9052259 23.4477153,25.3529412 24,25.3529412 Z" id="Path-4-Copy-3" fill="#EDA200" transform="translate(28.000000, 28.000000) scale(1, -1) translate(-28.000000, -28.000000) "></path>
            <path d="M8,25.3529412 L11.1176471,25.3529412 L11.1176471,25.3529412 L11.6470588,25.3529412 C13.3039131,25.3529412 14.6470588,26.6960869 14.6470588,28.3529412 L14.6470588,28.8823529 L14.6470588,28.8823529 L14.6470588,32 C14.6470588,32.5522847 15.0947741,33 15.6470588,33 L16,33 C16.5522847,33 17,32.5522847 17,32 L17,28.8823529 L17,28.8823529 L17,26 C17,24.3431458 15.6568542,23 14,23 L11.1176471,23 L11.1176471,23 L8,23 C7.44771525,23 7,23.4477153 7,24 L7,24.3529412 C7,24.9052259 7.44771525,25.3529412 8,25.3529412 Z" id="Path-4-Copy-2" fill="#59A869" transform="translate(12.000000, 28.000000) scale(1, -1) rotate(-90.000000) translate(-12.000000, -28.000000) "></path>
        </g>
    </g>
</svg>